<svg width="391" height="480" viewBox="0 0 391 480" fill="none" xmlns="http://www.w3.org/2000/svg">
<rect x="99.7132" y="0.60408" width="299" height="419" rx="19.5" transform="rotate(13.6823 99.7132 0.60408)" fill="white"/>
<rect x="99.7132" y="0.60408" width="299" height="419" rx="19.5" transform="rotate(13.6823 99.7132 0.60408)" stroke="#1A1A1A"/>
<rect x="99.7132" y="0.60408" width="299" height="419" rx="19.5" transform="rotate(13.6823 99.7132 0.60408)" stroke="white" stroke-opacity="0.8"/>
<rect x="75.7406" y="12.4187" width="299" height="419" rx="19.5" transform="rotate(7.53696 75.7406 12.4187)" fill="white"/>
<rect x="75.7406" y="12.4187" width="299" height="419" rx="19.5" transform="rotate(7.53696 75.7406 12.4187)" stroke="#1A1A1A"/>
<rect x="75.7406" y="12.4187" width="299" height="419" rx="19.5" transform="rotate(7.53696 75.7406 12.4187)" stroke="white" stroke-opacity="0.8"/>
<rect x="48.2812" y="36.5" width="299" height="419" rx="19.5" fill="white"/>
<rect x="48.2812" y="36.5" width="299" height="419" rx="19.5" stroke="#1A1A1A"/>
<rect x="48.2812" y="36.5" width="299" height="419" rx="19.5" stroke="white" stroke-opacity="0.2"/>
<circle cx="277.281" cy="154.5" r="14.5" fill="#ECF3FC"/>
<circle cx="130.781" cy="147" r="7" fill="#ECF3FC"/>
<circle cx="295.781" cy="199" r="4" fill="#ECF3FC"/>
<circle cx="231.781" cy="231" r="7" fill="#ECF3FC"/>
<circle cx="119.281" cy="231.5" r="25.5" fill="#ECF3FC"/>
<path fill-rule="evenodd" clip-rule="evenodd" d="M217.781 168.5C219.162 168.5 220.281 169.619 220.281 171L220.281 173.222C220.281 174.603 219.162 175.722 217.781 175.722C216.401 175.722 215.281 174.603 215.281 173.222L215.281 171C215.281 169.619 216.401 168.5 217.781 168.5ZM217.781 179.611C219.162 179.611 220.281 180.73 220.281 182.111L220.281 186.556C220.281 187.936 219.162 189.056 217.781 189.056C216.401 189.056 215.281 187.936 215.281 186.556L215.281 182.111C215.281 180.73 216.401 179.611 217.781 179.611ZM217.781 192.944C219.162 192.944 220.281 194.064 220.281 195.444L220.281 199.889C220.281 201.27 219.162 202.389 217.781 202.389C216.401 202.389 215.281 201.27 215.281 199.889L215.281 195.444C215.281 194.064 216.401 192.944 217.781 192.944ZM217.781 206.278C219.162 206.278 220.281 207.397 220.281 208.778L220.281 211C220.281 212.381 219.162 213.5 217.781 213.5C216.401 213.5 215.281 212.381 215.281 211L215.281 208.778C215.281 207.397 216.401 206.278 217.781 206.278Z" fill="#006BE5"/>
<path fill-rule="evenodd" clip-rule="evenodd" d="M157.781 179.122C157.789 179.131 157.799 179.142 157.811 179.154C157.948 179.293 158.273 179.509 158.776 179.614C160.671 180.007 163.099 180.838 165.092 182.757C167.232 184.819 168.369 187.652 168.369 191C168.369 194.348 167.232 197.181 165.092 199.243C163.099 201.162 160.671 201.993 158.776 202.386C158.273 202.491 157.948 202.707 157.811 202.846C157.799 202.858 157.789 202.869 157.781 202.878V211L237.781 211V202.861C237.771 202.847 237.754 202.828 237.73 202.803C237.583 202.653 237.257 202.437 236.774 202.336C234.848 201.93 232.417 201.088 230.435 199.17C228.303 197.109 227.193 194.295 227.193 191C227.193 187.705 228.303 184.891 230.435 182.83C232.417 180.912 234.848 180.07 236.774 179.664C237.257 179.563 237.583 179.347 237.73 179.197C237.754 179.172 237.771 179.153 237.781 179.139V171H157.781L157.781 171V179.122ZM157.76 197.491C160.582 196.905 163.369 195.309 163.369 191C163.369 186.691 160.582 185.095 157.76 184.509C155.056 183.948 152.781 181.943 152.781 179.182V171C152.781 168.239 155.02 166 157.781 166H237.781C240.543 166 242.781 168.239 242.781 171V179.182C242.781 181.943 240.507 183.988 237.805 184.557C234.903 185.168 232.193 186.775 232.193 191C232.193 195.225 234.903 196.832 237.805 197.443C240.507 198.012 242.781 200.057 242.781 202.818V211C242.781 213.761 240.543 216 237.781 216H157.781C155.02 216 152.781 213.761 152.781 211V202.818C152.781 200.057 155.056 198.052 157.76 197.491Z" fill="#006BE5"/>
<path fill-rule="evenodd" clip-rule="evenodd" d="M225.563 156.534C224.981 155.296 223.511 154.756 222.265 155.323L193.818 168.277C192.561 168.849 191.079 168.294 190.507 167.038C189.934 165.781 190.489 164.299 191.746 163.727L220.193 150.773C223.93 149.071 228.339 150.69 230.088 154.405L235.044 164.937C235.632 166.187 235.096 167.676 233.846 168.264C232.597 168.852 231.108 168.316 230.52 167.066L225.563 156.534Z" fill="#006BE5"/>
<path d="M167.355 106.816H171.363V108.496H167.355V106.816ZM165.891 98.152H167.907V119.872H165.891V98.152ZM152.067 100.288H154.059V113.728H152.067V100.288ZM152.067 112.696H153.795C157.011 112.696 160.299 112.48 163.875 111.736L164.115 113.392C160.419 114.16 157.083 114.376 153.795 114.376H152.067V112.696ZM180.337 99.736C183.721 99.736 186.145 101.824 186.145 104.848C186.145 107.896 183.721 109.984 180.337 109.984C176.953 109.984 174.505 107.896 174.505 104.848C174.505 101.824 176.953 99.736 180.337 99.736ZM180.337 101.464C178.081 101.464 176.449 102.832 176.449 104.848C176.449 106.864 178.081 108.256 180.337 108.256C182.569 108.256 184.201 106.864 184.201 104.848C184.201 102.832 182.569 101.464 180.337 101.464ZM188.977 98.152H190.969V119.896H188.977V98.152ZM173.689 115.144L173.401 113.488C177.361 113.488 182.833 113.464 187.561 112.72L187.729 114.184C182.857 115.12 177.553 115.144 173.689 115.144ZM203.947 113.008H205.675C209.731 113.008 212.563 112.888 215.899 112.336L216.091 113.944C212.683 114.544 209.803 114.664 205.675 114.664H203.947V113.008ZM203.947 100.144H214.459V101.8H205.915V113.584H203.947V100.144ZM205.435 106.216H213.667V107.824H205.435V106.216ZM218.371 98.176H220.363V119.872H218.371V98.176ZM232.553 104.536H237.329V106.144H232.553V104.536ZM241.121 98.176H243.017V112.912H241.121V98.176ZM236.825 98.56H238.721V110.968H236.825V98.56ZM234.761 111.64H236.465V112.336C236.465 116.224 232.505 119.032 228.137 119.8L227.369 118.216C231.209 117.616 234.761 115.216 234.761 112.336V111.64ZM235.025 111.64H236.753V112.336C236.753 115.216 240.329 117.616 244.145 118.216L243.377 119.8C239.009 119.032 235.025 116.224 235.025 112.336V111.64ZM232.313 100H234.257C234.257 105.328 231.929 109.6 225.809 112.264L224.825 110.8C230.249 108.496 232.313 104.944 232.313 100.528V100ZM225.833 100H233.009V101.632H225.833V100ZM232.121 104.08V105.472L225.137 106.216L224.825 104.56L232.121 104.08Z" fill="#1A1A1A"/>
</svg>
